<svg width="16" height="14" viewBox="0 0 16 14" fill="none" xmlns="http://www.w3.org/2000/svg">
<path d="M16 6.85265C16 5.87998 15.2053 5.08931 14.2287 5.08931C13.752 5.08931 13.32 5.27998 13.002 5.58665C11.7953 4.79265 10.1627 4.28731 8.35467 4.22265L9.34333 1.10998L12.0207 1.73731L12.0167 1.77598C12.0167 2.57131 12.6667 3.21798 13.466 3.21798C14.2647 3.21798 14.914 2.57131 14.914 1.77598C14.914 0.980646 14.264 0.333313 13.466 0.333313C12.8527 0.333313 12.33 0.71598 12.1187 1.25265L9.23267 0.57598C9.10667 0.545313 8.97867 0.61798 8.93933 0.74198L7.83667 4.21331C5.94467 4.23598 4.23067 4.74531 2.97 5.56331C2.654 5.27131 2.23467 5.08865 1.77067 5.08865C0.794 5.08865 0 5.87998 0 6.85265C0 7.49931 0.355333 8.05998 0.878 8.36665C0.843333 8.55465 0.820667 8.74465 0.820667 8.93798C0.820667 11.5453 4.026 13.6666 7.96667 13.6666C11.9073 13.6666 15.1133 11.5453 15.1133 8.93798C15.1133 8.75531 15.094 8.57531 15.0633 8.39798C15.618 8.09998 16 7.52331 16 6.85265ZM4.51733 8.06331C4.51733 7.48465 4.99067 7.01331 5.572 7.01331C6.15333 7.01331 6.626 7.48465 6.626 8.06331C6.626 8.64198 6.15333 9.11265 5.572 9.11265C4.99067 9.11265 4.51733 8.64198 4.51733 8.06331ZM10.558 11.176C10.0267 11.7046 9.19267 11.962 8.00867 11.962L8 11.96L7.99133 11.962C6.80667 11.962 5.97267 11.7046 5.442 11.176C5.34533 11.08 5.34533 10.9233 5.442 10.8273C5.53867 10.7306 5.696 10.7306 5.79267 10.8273C6.226 11.2586 6.94533 11.468 7.99133 11.468L8 11.47L8.00867 11.468C9.05467 11.468 9.774 11.258 10.2073 10.8266C10.304 10.73 10.4613 10.7306 10.558 10.8266C10.6547 10.9233 10.6547 11.0793 10.558 11.176ZM10.432 9.11265C9.85067 9.11265 9.378 8.64198 9.378 8.06331C9.378 7.48465 9.85067 7.01331 10.432 7.01331C11.0133 7.01331 11.486 7.48465 11.486 8.06331C11.486 8.64198 11.0133 9.11265 10.432 9.11265Z" fill="#0F1923"/>
</svg>
